<svg xmlns="http://www.w3.org/2000/svg" width="64" height="64" viewBox="0 0 64 64"><defs><linearGradient id="ch" x1="0" y1="0" x2="0.29" y2="0.96"><stop offset="0" stop-color="#2C3138"></stop><stop offset="0.45" stop-color="#1C2026"></stop><stop offset="1" stop-color="#0E1114"></stop></linearGradient><radialGradient id="hl" cx="0.22" cy="0.06" r="0.95"><stop offset="0" stop-color="#FFFFFF" stop-opacity="0.11"></stop><stop offset="0.58" stop-color="#FFFFFF" stop-opacity="0"></stop></radialGradient></defs><rect x="0" y="0" width="64" height="64" rx="21.76" fill="url(#ch)"></rect><rect x="0.6" y="0.6" width="62.8" height="62.8" rx="21.16" fill="url(#hl)" stroke="#8C96A2" stroke-opacity="0.2" stroke-width="1.2"></rect><g transform="translate(32,32) scale(0.68) translate(-32,-32)"><rect x="7" y="13" width="50" height="38" rx="8" fill="#04060A" fill-opacity=".55" stroke="#96A0AC" stroke-opacity=".32" stroke-width="1.8"></rect><path d="M24 18V46M40 18V46" fill="none" stroke="#C6CED6" stroke-opacity=".12" stroke-width="1.4"></path><path d="M32 20A12 12 0 0 1 41.5 22.6" fill="none" stroke="#FF9BCB" stroke-width="5" stroke-linecap="round"></path><path d="M42.4 26A12 12 0 0 1 43.1 36.5" fill="none" stroke="#FF4F64" stroke-width="5" stroke-linecap="round"></path><path d="M42.4 38A12 12 0 0 1 33.7 43.9" fill="none" stroke="#FFF176" stroke-width="5" stroke-linecap="round"></path><path d="M32 44A12 12 0 0 1 22.5 39.5" fill="none" stroke="#4BE38A" stroke-width="5" stroke-linecap="round"></path><path d="M21.6 38A12 12 0 0 1 20.9 27.5" fill="none" stroke="#78C7FF" stroke-width="5" stroke-linecap="round"></path><path d="M21.6 26A12 12 0 0 1 30.3 20.1" fill="none" stroke="#B44CFF" stroke-width="5" stroke-linecap="round"></path><circle cx="32" cy="32" r="4.8" fill="#080A0D" stroke="#F2F4F7" stroke-width="2.4"></circle></g></svg>
