<svg xmlns="http://www.w3.org/2000/svg" width="64" height="64" viewBox="0 0 64 64"><defs><linearGradient id="ch" x1="0" y1="0" x2="0.29" y2="0.96"><stop offset="0" stop-color="#2C3138"></stop><stop offset="0.45" stop-color="#1C2026"></stop><stop offset="1" stop-color="#0E1114"></stop></linearGradient><radialGradient id="hl" cx="0.22" cy="0.06" r="0.95"><stop offset="0" stop-color="#FFFFFF" stop-opacity="0.11"></stop><stop offset="0.58" stop-color="#FFFFFF" stop-opacity="0"></stop></radialGradient></defs><rect width="64" height="64" rx="21.76" fill="url(#ch)"></rect><rect x="0.6" y="0.6" width="62.8" height="62.8" rx="21.16" fill="url(#hl)" stroke="#8C96A2" stroke-opacity="0.2" stroke-width="1.2"></rect><g transform="translate(32,32) scale(0.68) translate(-32,-32)"><rect x="7" y="13" width="50" height="38" rx="8" fill="#04060A" fill-opacity=".55" stroke="#96A0AC" stroke-opacity=".32" stroke-width="1.8"></rect><path d="M24 18V46M40 18V46" fill="none" stroke="#C6CED6" stroke-opacity=".12" stroke-width="1.4"></path><path d="M14 25L32 18L50 25L32 33Z" fill="#B68235" fill-opacity=".14"></path><path d="M14 25L32 33V47L14 40Z" fill="#5B3FA8" fill-opacity=".18"></path><path d="M32 33L50 25V40L32 47Z" fill="#FAF9F7" fill-opacity=".07"></path><path d="M14 25L32 18L50 25V40L32 47L14 40ZM14 25L32 33L50 25M32 33V47" fill="none" stroke="#B68235" stroke-opacity=".72" stroke-width="2.8" stroke-linecap="round" stroke-linejoin="round"></path><path d="M20 37L33 23L45 36" fill="none" stroke="#B68235" stroke-width="3.8" stroke-linecap="round" stroke-linejoin="round"></path><path d="M20 32.8L24.2 37L20 41.2L15.8 37Z" fill="#5B3FA8" stroke="#FAF9F7" stroke-width="1.4" stroke-linejoin="round"></path><circle cx="33" cy="23" r="2.2" fill="#B68235" stroke="#04060A" stroke-width="1.3"></circle><circle cx="45" cy="36" r="4.2" fill="#FAF9F7" stroke="#04060A" stroke-width="1.4"></circle></g></svg>
