<svg xmlns="http://www.w3.org/2000/svg" width="64" height="64" viewBox="0 0 64 64"><defs><linearGradient id="ch" x1="0" y1="0" x2="0.29" y2="0.96"><stop offset="0" stop-color="#2C3138"></stop><stop offset="0.45" stop-color="#1C2026"></stop><stop offset="1" stop-color="#0E1114"></stop></linearGradient><radialGradient id="hl" cx="0.22" cy="0.06" r="0.95"><stop offset="0" stop-color="#FFFFFF" stop-opacity="0.11"></stop><stop offset="0.58" stop-color="#FFFFFF" stop-opacity="0"></stop></radialGradient></defs><rect width="64" height="64" rx="21.76" fill="url(#ch)"></rect><rect x="0.6" y="0.6" width="62.8" height="62.8" rx="21.16" fill="url(#hl)" stroke="#8C96A2" stroke-opacity="0.2" stroke-width="1.2"></rect><g transform="translate(32,32) scale(0.68) translate(-32,-32)"><rect x="7" y="13" width="50" height="38" rx="8" fill="#04060A" fill-opacity=".55" stroke="#96A0AC" stroke-opacity=".32" stroke-width="1.8"></rect><path d="M24 18V46M40 18V46" fill="none" stroke="#C6CED6" stroke-opacity=".12" stroke-width="1.4"></path><path d="M11 34H13C14.3 34 14.3 29 16 29H19C20.7 29 20.7 34 22 34C23.3 34 23.3 39 25 39H28C29.7 39 29.7 34 31 34C32.3 34 32.3 31 34 31H37C38.7 31 38.7 34 40 34C41.3 34 41.3 24 43 24H47C48.7 24 48.7 34 50 34H53" fill="none" stroke="#817C66" stroke-width="3.4" stroke-linecap="round" stroke-linejoin="round"></path><circle cx="17.5" cy="29" r="3.4" fill="#A94B49"></circle><circle cx="26.5" cy="39" r="3.4" fill="#3F7558"></circle><circle cx="35.5" cy="31" r="3.4" fill="#4D6FA8"></circle><circle cx="45" cy="24" r="3.4" fill="#C7C1AD"></circle></g></svg>
